<?xml version="1.0" encoding="utf-8"?>
<!-- Generator: Adobe Illustrator 23.0.3, SVG Export Plug-In . SVG Version: 6.00 Build 0)  -->
<svg version="1.1" id="Layer_1" xmlns="http://www.w3.org/2000/svg" xmlns:xlink="http://www.w3.org/1999/xlink" x="0px" y="0px"
	 viewBox="0 0 405 254" style="enable-background:new 0 0 405 254;" xml:space="preserve">
<style type="text/css">
	.st0{fill:#EAB0D3;}
	.st1{fill:#D80075;}
	.st2{fill:#E545A4;}
	.st3{opacity:0.1;}
	.st4{opacity:0.3;}
</style>
<g id="XMLID_1_">
	<g id="XMLID_145_">
		<path id="XMLID_146_" class="st0" d="M243.7,96.9c0,2.4-1.9,4.3-4.3,4.3l0,0c-2.4,0-4.3-1.9-4.3-4.3v-4.2c0-2.4,1.9-4.3,4.3-4.3
			l0,0c2.4,0,4.3,1.9,4.3,4.3V96.9z"/>
	</g>
	<g id="XMLID_17_">
		<path id="XMLID_879_" class="st1" d="M239.3,103.1c-3.4,0-6.2-2.8-6.2-6.2v-4.2c0-3.4,2.8-6.2,6.2-6.2c3.4,0,6.2,2.8,6.2,6.2v4.2
			C245.6,100.3,242.8,103.1,239.3,103.1z M239.3,90.3c-1.3,0-2.4,1.1-2.4,2.4v4.2c0,1.3,1.1,2.4,2.4,2.4c1.3,0,2.4-1.1,2.4-2.4v-4.2
			C241.7,91.4,240.7,90.3,239.3,90.3z"/>
	</g>
	<g id="XMLID_517_">
		<path id="XMLID_16_" class="st0" d="M170.7,96.9c0,2.4-1.9,4.3-4.3,4.3l0,0c-2.4,0-4.3-1.9-4.3-4.3v-4.2c0-2.4,1.9-4.3,4.3-4.3
			l0,0c2.4,0,4.3,1.9,4.3,4.3V96.9z"/>
	</g>
	<g id="XMLID_15_">
		<path id="XMLID_876_" class="st1" d="M166.4,103.1c-3.4,0-6.2-2.8-6.2-6.2v-4.2c0-3.4,2.8-6.2,6.2-6.2c3.4,0,6.2,2.8,6.2,6.2v4.2
			C172.6,100.3,169.8,103.1,166.4,103.1z M166.4,90.3c-1.3,0-2.4,1.1-2.4,2.4v4.2c0,1.3,1.1,2.4,2.4,2.4c1.3,0,2.4-1.1,2.4-2.4v-4.2
			C168.8,91.4,167.7,90.3,166.4,90.3z"/>
	</g>
	<g id="XMLID_13_">
		<path id="XMLID_14_" class="st2" d="M249.4,200.4V172c0-21.7-20.7-39.5-46-39.5l0,0c-25.3,0-46,17.8-46,39.5v28.4H249.4z"/>
	</g>
	<g id="XMLID_12_">
		<path id="XMLID_875_" class="st1" d="M159.4,200.4h-3.9V172c0-3.3,0.5-6.7,1.4-9.9l3.7,1.1c-0.8,2.9-1.2,5.8-1.2,8.8L159.4,200.4
			L159.4,200.4z"/>
	</g>
	<g id="XMLID_511_">
		<path id="XMLID_874_" class="st1" d="M163.7,155.8l-3.4-1.9c2.3-4,5.3-7.7,8.9-10.9l2.5,2.9C168.5,148.8,165.8,152.1,163.7,155.8z
			"/>
	</g>
	<g id="XMLID_11_">
		<path id="XMLID_873_" class="st1" d="M232,143.5c-8-5.8-18.1-9-28.6-9c-9,0-17.7,2.3-25.1,6.7l-2-3.3c8-4.7,17.3-7.3,27-7.3
			c11.3,0,22.2,3.5,30.9,9.8L232,143.5z"/>
	</g>
	<g id="XMLID_10_">
		<rect id="XMLID_872_" x="181.5" y="169.2" class="st1" width="3.9" height="31.1"/>
	</g>
	<g id="XMLID_9_">
		<rect id="XMLID_871_" x="221.8" y="169.2" class="st1" width="3.9" height="31.1"/>
	</g>
	<g id="XMLID_8_">
		<path class="st0" d="M201.8,148.5L201.8,148.5c-4.8,0-8.6-3.9-8.6-8.6v-19.4c0-4.1,3.3-7.4,7.4-7.4h2.4c4.1,0,7.4,3.3,7.4,7.4
			v19.4C210.4,144.6,206.5,148.5,201.8,148.5z"/>
	</g>
	<g id="XMLID_7_">
		<path id="XMLID_868_" class="st1" d="M201.8,150.4c-5.8,0-10.5-4.7-10.5-10.5v-19.4c0-5.1,4.2-9.3,9.3-9.3h2.4
			c5.1,0,9.3,4.2,9.3,9.3v19.4C212.3,145.7,207.6,150.4,201.8,150.4z M200.6,115c-3,0-5.5,2.4-5.5,5.5v19.4c0,3.7,3,6.7,6.7,6.7
			c3.7,0,6.7-3,6.7-6.7v-19.4c0-3-2.4-5.5-5.5-5.5H200.6z"/>
	</g>
	<g id="XMLID_6_">
		<path id="XMLID_118_" class="st0" d="M202.5,131.5L202.5,131.5c-18,0-32.7-14.7-32.7-32.7V76.6c0-18,14.7-17.6,32.7-17.6l0,0
			c18,0,32.7-0.4,32.7,17.6v22.2C235.2,116.8,220.5,131.5,202.5,131.5z"/>
	</g>
	<g id="XMLID_5_">
		<path id="XMLID_865_" class="st1" d="M202.5,133.4c-19.1,0-34.6-15.5-34.6-34.7V76.6c0-8.9,3.4-14.5,10.5-17.2
			c6-2.3,14.3-2.3,23-2.3h2.3c8.8,0,17,0,23,2.3c7,2.7,10.5,8.3,10.5,17.2v22.2C237.1,117.9,221.6,133.4,202.5,133.4z M200.2,60.9
			c-7.9,0-15.4,0.1-20.5,2.1c-5.5,2.1-8,6.3-8,13.6v22.2c0,17,13.8,30.8,30.8,30.8c17,0,30.8-13.8,30.8-30.8V76.6
			c0-7.3-2.5-11.5-8-13.6c-5.4-2.1-13.2-2.1-21.6-2.1h-2.3C200.9,60.9,200.6,60.9,200.2,60.9z"/>
	</g>
	<g id="XMLID_4_">
		<path id="XMLID_114_" class="st0" d="M169.9,90.5L169.9,90.5c-4.3,0-7.8-3.5-7.8-7.8V63.8c0-6.5,5.3-11.7,11.7-11.7l0,0l0,0
			c0-5.3,4.3-9.6,9.6-9.6h47.6c6.4,0,11.7,5.2,11.7,11.7v28.3c0,4.2-3.5,7.5-7.7,7.3l0,0V71c0,0-5.4,8.8-22.3,8.8
			c-20.4,0-33.7-10.1-33.7-10.1s-1.3,2.8-4,5.2c-2.5,2.2-5.1,1.4-5.1,1.4L169.9,90.5L169.9,90.5z"/>
	</g>
	<g id="XMLID_111_">
		<path id="XMLID_861_" class="st2" d="M169.9,90.5V76.2c0,0,2.5,0.8,5.1-1.4c2.7-2.4,4-5.2,4-5.2s26.9,14.1,42.9,8.9
			c-17.4-7.5-39.9-12-43.7-34.5c-2.6,1.7-4.4,4.7-4.4,8.1c-6.5,0-11.7,5.3-11.7,11.7v18.8C162.1,87,165.6,90.5,169.9,90.5z"/>
	</g>
	<g id="XMLID_3_">
		<path id="XMLID_863_" class="st1" d="M171.9,92.4h-1.9c-5.4,0-9.8-4.4-9.8-9.8V63.8c0-6.9,5.2-12.7,11.9-13.6
			c0.9-5.5,5.7-9.8,11.4-9.8h47.6c7.5,0,13.6,6.1,13.6,13.6v28.3c0,2.5-1.1,5-2.9,6.7c-1.8,1.7-4.3,2.6-6.9,2.5l-1.8-0.1V71h3.9
			v16.6c0.8-0.2,1.5-0.6,2.2-1.2c1.1-1,1.7-2.4,1.7-3.9V54.1c0-5.4-4.4-9.7-9.7-9.7h-47.6c-4.3,0-7.7,3.5-7.7,7.7V54h-1.9
			c-5.4,0-9.8,4.4-9.8,9.8v18.8c0,2.6,1.7,4.8,4,5.6l0-14.6l2.5,0.8c0,0,1.6,0.4,3.2-1c2.4-2.1,3.5-4.5,3.5-4.6l3.5,1.6
			c-0.1,0.1-1.5,3.2-4.5,5.9c-1.5,1.3-3.1,1.9-4.4,2L171.9,92.4L171.9,92.4z"/>
	</g>
	<g id="XMLID_2_">
		<path id="XMLID_862_" class="st1" d="M212.8,81.6C212.7,81.6,212.7,81.6,212.8,81.6c-20.9,0-38.8-13.1-39.5-13.6l2.3-3.1
			c0.2,0.1,17.6,12.8,37.2,12.9c0,0,0,0,0,0c15.7,0,22.9-10.6,22.9-10.8l3.2,2.1C238.6,69.7,230.5,81.6,212.8,81.6z"/>
	</g>
</g>
<g id="XMLID_253_">
	<g id="XMLID_93_" class="st3">
		<path id="XMLID_71_" d="M366.1,99.5L366.1,99.5c0,10.6-8.6,19.1-19.1,19.1h-44.7l0,0c0,14.7-11.9,26.6-26.6,26.6h-20.2
			c-8.2,0-14.8,6.6-14.8,14.8l0,0c0,8.2,6.6,14.8,14.8,14.8h82c8.6,0,15.5,7,15.5,15.5l0,0c0,8.6-7,15.5-15.5,15.5H300
			c-13.3,0-24,10.8-24,24l0,0l-161.8,0.3l0.5-28.4H57.1c-10.2,0.2-18.5-8.2-18.5-18.5l0,0c0-10.3,8.3-18.5,18.5-18.5h44.7
			c9.5,0,17.1-7.7,17.1-17.1l0,0c0-9.5-7.7-17.1-17.1-17.1h-4.1c-13.8,0-25.1-11.2-25.1-25.1l0,0c0-13.8,11.2-25.1,25.1-25.1
			L179,60.6c20.9-5.1,42.7-5.2,63.7-0.3C289.2,71.2,366.1,91.9,366.1,99.5z"/>
	</g>
	<g id="XMLID_459_">
		<g id="XMLID_510_">
			<g id="XMLID_518_">
				<path class="st0" d="M276.8,164.6l13.4,13.4v46.5c0,2.1-1.7,3.8-3.8,3.8h-39.8c-2.1,0-3.8-1.7-3.8-3.8v-56.1
					c0-2.1,1.7-3.8,3.8-3.8C246.6,164.6,276.8,164.6,276.8,164.6z"/>
			</g>
			<g id="XMLID_515_">
				<polygon class="st2" points="276.8,177.9 276.8,164.6 290.2,177.9 				"/>
			</g>
			<g id="XMLID_514_">
				<path id="XMLID_806_" class="st1" d="M290.2,179.2h-12.1c-1.5,0-2.6-1.1-2.6-2.6v-12h2.5v12l12.1,0.1L290.2,179.2L290.2,179.2z"
					/>
			</g>
			<g id="XMLID_512_">
				<path id="XMLID_805_" class="st1" d="M286.4,229.5h-39.8V227h39.8c1.4,0,2.6-1.1,2.6-2.6v-46l-12.6-12.6h-29.8
					c-1.4,0-2.6,1.1-2.6,2.6v18h-2.5v-18c0-2.8,2.3-5.1,5.1-5.1h30.8l14.1,14.1v47C291.4,227.3,289.1,229.5,286.4,229.5z"/>
			</g>
		</g>
		<g id="XMLID_501_">
			<g id="XMLID_509_">
				<path class="st0" d="M284.6,160.8l13.4,13.4v46.5c0,2.1-1.7,3.8-3.8,3.8h-39.8c-2.1,0-3.8-1.7-3.8-3.8v-56.1
					c0-2.1,1.7-3.8,3.8-3.8C254.3,160.8,284.6,160.8,284.6,160.8z"/>
			</g>
			<g id="XMLID_508_">
				<polygon class="st2" points="284.6,174 284.6,160.8 298,174 				"/>
			</g>
			<g id="XMLID_507_">
				<path id="XMLID_804_" class="st1" d="M298,175.3h-12c-1.5,0-2.6-1.1-2.6-2.6v-12h2.5v12l12.1,0.1V175.3L298,175.3L298,175.3z"/>
			</g>
			<g id="XMLID_506_">
				<rect id="XMLID_803_" x="257.7" y="179.3" class="st1" width="33.9" height="2.5"/>
			</g>
			<g id="XMLID_505_">
				<rect id="XMLID_802_" x="257.7" y="186.9" class="st1" width="33.9" height="2.5"/>
			</g>
			<g id="XMLID_504_">
				<rect id="XMLID_801_" x="257.7" y="194.4" class="st1" width="33.9" height="2.5"/>
			</g>
			<g id="XMLID_503_">
				<rect id="XMLID_800_" x="257.7" y="202" class="st1" width="33.9" height="2.5"/>
			</g>
			<g id="XMLID_251_">
				<path id="XMLID_799_" class="st1" d="M294.2,225.7h-1.8v-2.5h1.8c1.4,0,2.6-1.1,2.6-2.6v-46l-12.6-12.6h-25.6v-2.4h26.6
					l14.1,14.1v47C299.2,223.4,296.9,225.7,294.2,225.7z"/>
			</g>
		</g>
		<g id="XMLID_470_">
			<g id="XMLID_500_">
				<path class="st0" d="M292.4,166.6l13.4,13.4v46.5c0,2.1-1.7,3.8-3.8,3.8h-39.8c-2.1,0-3.8-1.7-3.8-3.8v-56.1
					c0-2.1,1.7-3.8,3.8-3.8C262.1,166.6,292.4,166.6,292.4,166.6z"/>
			</g>
			<g id="XMLID_499_">
				<polygon class="st2" points="292.4,179.9 292.4,166.6 305.7,179.9 				"/>
			</g>
			<g id="XMLID_498_">
				<path id="XMLID_798_" class="st1" d="M305.7,181.2h-12c-1.5,0-2.6-1.1-2.6-2.6v-12h2.5v12l12.1,0.1V181.2L305.7,181.2z"/>
			</g>
			<g id="XMLID_497_">
				<rect id="XMLID_797_" x="265.3" y="185.1" class="st1" width="33.9" height="2.5"/>
			</g>
			<g id="XMLID_496_">
				<rect id="XMLID_796_" x="265.3" y="192.7" class="st1" width="33.9" height="2.5"/>
			</g>
			<g id="XMLID_493_">
				<rect id="XMLID_795_" x="265.3" y="200.3" class="st1" width="22.8" height="2.5"/>
			</g>
			<g id="XMLID_492_">
				<rect id="XMLID_794_" x="265.3" y="207.9" class="st1" width="22.8" height="2.5"/>
			</g>
			<g id="XMLID_250_">
				<path id="XMLID_793_" class="st1" d="M259.5,220.6H257v-50.3c0-2.8,2.3-5.1,5.1-5.1h30.8l14.1,14.1v10.4h-2.5v-9.3l-12.6-12.6
					h-29.8c-1.4,0-2.6,1.1-2.6,2.6L259.5,220.6L259.5,220.6z"/>
			</g>
		</g>
	</g>
	<g id="XMLID_139_">
		<g id="XMLID_193_">
			<path id="XMLID_1035_" class="st0" d="M172.6,230.3H92.1c-1.7,0-3.2-1.4-3.2-3.2V114c0-1.7,1.4-3.2,3.2-3.2h80.5
				c1.7,0,3.2,1.4,3.2,3.2v113.1C175.8,228.8,174.3,230.3,172.6,230.3z"/>
		</g>
		<g id="XMLID_183_">
			<rect id="XMLID_1034_" x="88.9" y="110.8" class="st2" width="86.8" height="29.7"/>
		</g>
		<g id="XMLID_182_">
			<circle id="XMLID_73_" class="st2" cx="108" cy="125.4" r="10.9"/>
		</g>
		<g id="XMLID_178_">
			<g id="XMLID_179_">
				<path id="XMLID_75_" class="st0" d="M104.1,222.9h-0.8v-4.7h0.8V222.9z M104.1,213.5h-0.8v-4.7h0.8V213.5z M104.1,204.2h-0.8
					v-4.7h0.8V204.2z M104.1,194.8h-0.8v-4.7h0.8V194.8z M104.1,185.5h-0.8v-4.7h0.8V185.5z M104.1,176.1h-0.8v-4.7h0.8V176.1z
					 M104.1,166.8h-0.8v-4.7h0.8V166.8z M104.1,157.4h-0.8v-4.7h0.8V157.4z"/>
			</g>
		</g>
		<g id="XMLID_177_">
			<circle id="XMLID_74_" class="st0" cx="103.8" cy="210.9" r="2.9"/>
		</g>
		<g id="XMLID_174_">
			<path id="XMLID_792_" class="st1" d="M90.2,230.4h-2.5V113.9c0-2.4,1.9-4.4,4.4-4.4h80.5c2.4,0,4.4,1.9,4.4,4.4v40.5h-2.5V114
				c0-1.1-0.8-1.9-1.9-1.9H92.1c-1.1,0-1.9,0.8-1.9,1.9V230.4z"/>
		</g>
		<g id="XMLID_155_">
			<rect id="XMLID_791_" x="88.9" y="139.2" class="st1" width="86.8" height="2.5"/>
		</g>
		<g id="XMLID_151_">
			<circle id="XMLID_76_" class="st0" cx="103.8" cy="182.9" r="2.9"/>
		</g>
		<g id="XMLID_150_">
			<circle id="XMLID_78_" class="st0" cx="103.8" cy="155.1" r="2.9"/>
		</g>
		<g id="XMLID_142_">
			<rect id="XMLID_790_" x="112.2" y="153.9" class="st1" width="54.1" height="2.5"/>
		</g>
		<g id="XMLID_157_">
			<rect id="XMLID_789_" x="112.2" y="179.5" class="st1" width="54.1" height="2.5"/>
		</g>
		<g id="XMLID_161_">
			<rect id="XMLID_788_" x="112.2" y="184.6" class="st1" width="54.1" height="2.5"/>
		</g>
		<g id="XMLID_162_">
			<rect id="XMLID_787_" x="112.2" y="189.6" class="st1" width="54.1" height="2.5"/>
		</g>
		<g id="XMLID_164_">
			<rect id="XMLID_786_" x="112.3" y="206.7" class="st1" width="54.1" height="2.5"/>
		</g>
		<g id="XMLID_176_">
			<rect id="XMLID_785_" x="112.2" y="211.4" class="st1" width="54.1" height="2.5"/>
		</g>
		<g id="XMLID_181_">
			<rect id="XMLID_784_" x="112.2" y="216.1" class="st1" width="37.3" height="2.5"/>
		</g>
		<g id="XMLID_163_">
			<rect id="XMLID_783_" x="112.2" y="194.6" class="st1" width="20.2" height="2.5"/>
		</g>
		<g id="XMLID_141_">
			<rect id="XMLID_782_" x="112.2" y="158.9" class="st1" width="54.1" height="2.5"/>
		</g>
		<g id="XMLID_144_">
			<rect id="XMLID_781_" x="112.2" y="164" class="st1" width="54.1" height="2.5"/>
		</g>
		<g id="XMLID_148_">
			<rect id="XMLID_780_" x="112.2" y="169.1" class="st1" width="20.2" height="2.5"/>
		</g>
	</g>
	<g id="XMLID_184_">
		<g id="XMLID_186_">
			<path id="XMLID_779_" class="st1" d="M310.7,80.5h-7.1c-0.7,0-1.2-0.6-1.2-1.2c0-0.6,0.6-1.2,1.2-1.2h7.1c0.7,0,1.2,0.6,1.2,1.2
				C312,80,311.4,80.5,310.7,80.5z"/>
		</g>
		<g id="XMLID_185_">
			<path id="XMLID_778_" class="st1" d="M307.2,84.1c-0.7,0-1.2-0.6-1.2-1.2v-7.2c0-0.7,0.6-1.2,1.2-1.2c0.7,0,1.2,0.6,1.2,1.2v7.1
				C308.4,83.5,307.8,84.1,307.2,84.1z"/>
		</g>
	</g>
	<g id="XMLID_237_">
		<g id="XMLID_239_">
			<path id="XMLID_777_" class="st1" d="M67.7,152.3h-7.1c-0.7,0-1.2-0.6-1.2-1.2c0-0.7,0.6-1.2,1.2-1.2h7.1c0.7,0,1.2,0.6,1.2,1.2
				C68.9,151.8,68.4,152.3,67.7,152.3z"/>
		</g>
		<g id="XMLID_238_">
			<path id="XMLID_775_" class="st1" d="M64.1,155.9c-0.7,0-1.2-0.6-1.2-1.2v-7.1c0-0.7,0.6-1.2,1.2-1.2c0.7,0,1.2,0.6,1.2,1.2v7.1
				C65.4,155.3,64.8,155.9,64.1,155.9z"/>
		</g>
	</g>
	<g id="XMLID_210_">
		<g id="XMLID_243_">
			<path id="XMLID_774_" class="st1" d="M338.4,149c-0.3,0-0.6-0.2-0.9-0.4c-0.5-0.5-0.5-1.3,0-1.8l5-5c0.5-0.5,1.3-0.5,1.8,0
				c0.5,0.5,0.5,1.3,0,1.8l-5,5C339.1,148.9,338.7,149,338.4,149z"/>
		</g>
		<g id="XMLID_213_">
			<path id="XMLID_773_" class="st1" d="M343.5,149c-0.3,0-0.6-0.2-0.9-0.4l-5-5c-0.5-0.5-0.5-1.3,0-1.8c0.5-0.5,1.3-0.5,1.8,0l5,5
				c0.5,0.5,0.5,1.3,0,1.8C344.2,148.9,343.8,149,343.5,149z"/>
		</g>
	</g>
	<g id="XMLID_212_">
		<g id="XMLID_236_">
			<path id="XMLID_772_" class="st1" d="M134.3,97.7c-0.3,0-0.6-0.2-0.9-0.4c-0.5-0.5-0.5-1.3,0-1.8l5-5c0.5-0.5,1.3-0.5,1.8,0
				c0.5,0.5,0.5,1.3,0,1.8l-5,5C135,97.6,134.7,97.7,134.3,97.7z"/>
		</g>
		<g id="XMLID_235_">
			<path id="XMLID_770_" class="st1" d="M139.4,97.7c-0.3,0-0.6-0.2-0.9-0.4l-5-5c-0.5-0.5-0.5-1.3,0-1.8c0.5-0.5,1.3-0.5,1.8,0l5,5
				c0.5,0.5,0.5,1.3,0,1.8C140,97.6,139.7,97.7,139.4,97.7z"/>
		</g>
	</g>
	<g id="XMLID_199_">
		<rect id="XMLID_766_" x="265.3" y="151" class="st1" width="59.7" height="2.5"/>
	</g>
	<g id="XMLID_240_">
		<rect id="XMLID_765_" x="49.2" y="127.7" class="st1" width="29.9" height="2.5"/>
	</g>
	<g id="XMLID_135_">
		<rect id="XMLID_764_" x="257.3" y="78" class="st1" width="29.1" height="2.5"/>
	</g>
	<g id="XMLID_105_">
		<rect id="XMLID_762_" x="288.8" y="78" class="st1" width="6" height="2.5"/>
	</g>
	<g id="XMLID_143_">
		<circle id="XMLID_72_" class="st1" cx="318.4" cy="136.3" r="3.1"/>
	</g>
	<g id="XMLID_246_">
		<circle id="XMLID_79_" class="st1" cx="94" cy="92.5" r="3.1"/>
	</g>
	<g id="XMLID_244_">
		<circle id="XMLID_80_" class="st1" cx="237.3" cy="137.9" r="1.6"/>
	</g>
	<g id="XMLID_245_">
		<circle id="XMLID_81_" class="st1" cx="122.3" cy="59" r="1.6"/>
	</g>
	<g id="XMLID_247_">
		<circle id="XMLID_82_" class="st1" cx="79.1" cy="157.4" r="1.6"/>
	</g>
	<g id="XMLID_67_">
		<g id="XMLID_189_">
			<rect id="XMLID_761_" x="71.7" y="229" class="st1" width="273.5" height="2.5"/>
		</g>
		<g id="XMLID_188_">
			<rect id="XMLID_758_" x="64.1" y="229" class="st1" width="4.6" height="2.5"/>
		</g>
		<g id="XMLID_187_">
			<rect id="XMLID_757_" x="347.8" y="229" class="st1" width="10.1" height="2.5"/>
		</g>
	</g>
	<g id="XMLID_84_" class="st4">
		<g id="XMLID_252_">
			<path id="XMLID_86_" class="st1" d="M177,148.9c-0.2,0.6-0.3,1.3-0.3,2v3.5h0.3V148.9z"/>
		</g>
		<g id="XMLID_254_">
			<path id="XMLID_87_" class="st1" d="M175.8,227.1v-71.1h-39.4v74.1h1.2h1.2h33.7C174.3,230.3,175.8,228.8,175.8,227.1z"/>
		</g>
	</g>
	<g id="XMLID_101_">
		<g id="XMLID_98_">
			<rect x="141" y="157.4" class="st2" width="114.6" height="72.9"/>
		</g>
		<g id="XMLID_97_" class="st4">
			<rect id="XMLID_216_" x="141" y="158.8" class="st1" width="114.6" height="28.4"/>
		</g>
		<g id="XMLID_96_">
			<rect x="141" y="157.4" class="st2" width="114.6" height="28.4"/>
		</g>
		<g id="XMLID_95_">
			<rect x="193.7" y="179.1" class="st0" width="9.1" height="14.7"/>
		</g>
		<g id="XMLID_88_">
			<path id="XMLID_755_" class="st1" d="M216.6,157.8H214V151c0-2.4-2-4.5-4.5-4.5H187c-2.4,0-4.5,2-4.5,4.5v6.8h-2.5V151
				c0-3.9,3.2-7,7-7h22.6c3.9,0,7,3.2,7,7V157.8L216.6,157.8z"/>
		</g>
		<g id="XMLID_248_">
			<polygon id="XMLID_754_" class="st1" points="142.2,230.3 139.7,230.3 139.7,156.1 256.9,156.1 256.9,220.6 254.3,220.6 
				254.3,158.6 142.2,158.6 			"/>
		</g>
	</g>
	<g id="XMLID_140_">
		<g id="XMLID_138_">
			<rect id="XMLID_1033_" x="195.1" y="224.7" class="st2" width="6.4" height="4"/>
		</g>
		<g id="XMLID_137_">
			<path id="XMLID_751_" class="st1" d="M202.8,230h-8.9v-6.6h8.9V230z M196.3,227.5h4V226h-4V227.5z"/>
		</g>
		<g id="XMLID_136_">
			<rect id="XMLID_750_" x="273" y="225.5" class="st1" width="5.3" height="2.5"/>
		</g>
		<g id="XMLID_133_">
			<polygon id="XMLID_749_" class="st1" points="203.2,223.7 200.7,223.7 200.7,218.6 231.8,218.6 231.8,221.1 203.2,221.1 			"/>
		</g>
		<g id="XMLID_116_">
			<path class="st0" d="M267.4,230.3h-65.7v-7h65.7l8.7,3.3c0.2,0.1,0.2,0.3,0,0.4L267.4,230.3z"/>
		</g>
		<g id="XMLID_115_">
			<rect id="XMLID_1032_" x="201.7" y="223.2" class="st0" width="65.7" height="7"/>
		</g>
		<g id="XMLID_112_">
			<rect x="237" y="223.2" class="st2" width="22.2" height="7"/>
		</g>
		<g id="XMLID_109_">
			<rect x="237" y="223.2" class="st0" width="22.2" height="3.5"/>
		</g>
		<g id="XMLID_106_">
			<path id="XMLID_743_" class="st1" d="M267.6,231.5h-67.2V222l67.4,0.1l8.7,3.3c0.6,0.2,1,0.7,1,1.4c0,0.6-0.3,1.1-0.9,1.4
				L267.6,231.5z M202.9,229h64.3l5.9-2.3l-5.9-2.3h-64.3V229L202.9,229z"/>
		</g>
		<g id="XMLID_104_">
			<rect id="XMLID_742_" x="235.8" y="223.7" class="st1" width="2.5" height="6.1"/>
		</g>
		<g id="XMLID_103_">
			<rect id="XMLID_741_" x="256.9" y="223.7" class="st1" width="2.5" height="6.1"/>
		</g>
		<g id="XMLID_102_">
			<rect id="XMLID_740_" x="266.2" y="223.7" class="st1" width="2.5" height="6.1"/>
		</g>
	</g>
	<g id="XMLID_474_">
		<g id="XMLID_491_">
			<path id="XMLID_90_" class="st2" d="M338.4,192.9h-35.9v10.9c0,7.8,2.9,15.2,8.2,21l0,0v5.4h19.6v-5.4l0,0
				c5.3-5.7,8.2-13.2,8.2-21V192.9L338.4,192.9z"/>
		</g>
		<g id="XMLID_490_">
			<path id="XMLID_91_" class="st0" d="M330.7,192.9v10.9c0,7.8-2.9,15.2-8.2,21l0,0v5.4h4.2v-5.4l0,0c5.3-5.7,8.2-13.2,8.2-21
				v-10.9H330.7z"/>
		</g>
		<g id="XMLID_489_">
			<path id="XMLID_739_" class="st1" d="M331.1,231.5H309v-6.2c-5.3-5.9-8.2-13.5-8.2-21.4v-12.1h38.4v12.1c0,2.3-0.2,4.6-0.7,6.9
				l-2.4-0.6c0.5-2.1,0.6-4.2,0.6-6.3v-9.6h-33.4v9.6c0,7.4,2.8,14.6,7.8,20.1l0.3,0.3v4.7h17.1v-4.7l0.3-0.3c1-1.1,1.9-2.2,2.7-3.3
				l2.1,1.5c-0.8,1.1-1.6,2.3-2.5,3.2L331.1,231.5L331.1,231.5z"/>
		</g>
		<g id="XMLID_488_">
			<path id="XMLID_738_" class="st1" d="M335,219.8l-2.2-1.2c1-1.7,1.8-3.6,2.4-5.4l2.3,0.8C337,216,336.2,218,335,219.8z"/>
		</g>
		<g id="XMLID_487_">
			<path id="XMLID_737_" class="st1" d="M304,214.8h-5.9c-4.9,0-8.9-4-8.9-8.9c0-4.9,4-8.9,8.9-8.9h3.8v2.5h-3.8
				c-3.6,0-6.4,2.9-6.4,6.4c0,3.6,2.9,6.4,6.4,6.4h5.9V214.8z"/>
		</g>
		<g id="XMLID_486_">
			<path id="XMLID_736_" class="st1" d="M316.8,189h-2.5v-2.1c0-3.9,3.2-7,7-7h5.3c0.5,0,0.8-0.4,0.8-0.8s-0.4-0.8-0.8-0.8H310
				c-1.7,0-3.2-1.4-3.2-3.2c0-1.7,1.4-3.2,3.2-3.2h7v2.5h-7c-0.3,0-0.6,0.3-0.6,0.6c0,0.3,0.3,0.6,0.6,0.6h16.7
				c1.9,0,3.3,1.5,3.3,3.3s-1.5,3.3-3.3,3.3h-5.3c-2.5,0-4.5,2-4.5,4.5V189z"/>
		</g>
		<g id="XMLID_475_">
			<path id="XMLID_735_" class="st1" d="M325.9,174.8h-6.1v-2.5h6.1c0.5,0,0.9-0.4,0.9-0.9c0-0.5-0.4-0.9-0.9-0.9h-15.5
				c-1.9,0-3.6-1.6-3.6-3.6c0-1.9,1.6-3.6,3.6-3.6h22.6v2.5h-22.6c-0.6,0-1.1,0.5-1.1,1.1c0,0.6,0.5,1.1,1.1,1.1h15.5
				c1.9,0,3.4,1.5,3.4,3.4S327.7,174.8,325.9,174.8z"/>
		</g>
	</g>
</g>
</svg>
